<svg xmlns="http://www.w3.org/2000/svg" width="25" height="25" viewBox="0 0 25 25">
    <path fill="#9D5AD0" fill-rule="nonzero" d="M25 3.214l-3.75.536.536-3.75-2.852 2.852A12.064 12.064 0 0 0 12.12.758C5.427.758 0 6.184 0 12.878 0 19.574 5.427 25 12.121 25c6.695 0 12.121-5.427 12.121-12.121 0-2.526-.773-4.871-2.094-6.813L25 3.214zM12.121 21.97a9.09 9.09 0 1 1 5.574-16.273l-2.168 2.169a6.06 6.06 0 1 0 1.607 1.607l2.168-2.168a9.09 9.09 0 0 1-7.181 14.665zm-.513-8.578a1.136 1.136 0 0 0 1.607 0l1.697-1.697a3.03 3.03 0 1 1-1.607-1.607l-1.697 1.697a1.137 1.137 0 0 0 0 1.607z"/>
</svg>
